<svg width="14" height="16" viewBox="0 0 14 16" fill="none" xmlns="http://www.w3.org/2000/svg">
<path d="M10.9011 1.232C10.9592 1.698 10.5679 2 10.0737 2H3.9319C3.4391 2 3.0457 1.69867 3.1045 1.22933C2.1742 1.41667 0 2.002 0 2.90667C0 3.10867 0.0720999 3.37333 0.1645 3.814C2.387 5.78267 11.1951 5.87267 13.7977 3.97667C13.909 3.42733 14 3.12467 14 2.90267C14 2.014 11.8363 1.42067 10.9011 1.232ZM13.0802 5.83C12.4726 8.888 11.5514 12.8567 11.1839 14.688C10.4286 15.5627 8.7024 16 6.9748 16C5.2472 16 3.5203 15.5627 2.7657 14.688C2.3954 12.7653 1.4819 8.776 0.8869 5.74533C3.0947 6.59467 6.0655 6.67933 7.1134 6.67933C8.3531 6.67933 11.0061 6.57867 13.0802 5.83ZM3.9319 1.32133C4.5773 1.32133 5.1002 0.601333 5.1002 0H8.9061C8.9061 0.601333 9.429 1.32133 10.0737 1.32133H3.9319Z" fill="#E4E4E4"/>
</svg>
